<svg xmlns:xlink="http://www.w3.org/1999/xlink" xmlns="http://www.w3.org/2000/svg" data-size="small" fill="none" height="88" viewBox="0 0 129 88" width="129"><path d="M3.99999 4.00001L3.99999 28.4324C3.99999 35.0598 9.37258 40.4324 16 40.4324L116 40.4324C122.627 40.4324 128 45.805 128 52.4324L128 88" stroke="url(&quot;#paint0_linear_6_107&quot;)" stroke-width="2px" fill="none"></path><path d="M3.99999 4.00001L3.99999 28.4324C3.99999 35.0598 9.37258 40.4324 16 40.4324L116 40.4324C122.627 40.4324 128 45.805 128 52.4324L128 88" stroke="url(&quot;#paint1_linear_6_107&quot;)" stroke-width="2px" fill="none"></path><g clip-path="url(#clip0_6_107)" fill="none"><path clip-rule="evenodd" d="M4 0.5L8 7.5H0L4 0.5Z" fill="#45DEC4" fill-rule="evenodd"></path></g><defs><linearGradient gradientUnits="userSpaceOnUse" id="paint0_linear_6_107" x1="98" x2="34" y1="40.4324" y2="40.4324"><stop stop-color="#E5484D"></stop><stop offset="0.5" stop-color="#FFC634"></stop><stop offset="1" stop-color="#45DEC4"></stop></linearGradient><linearGradient gradientUnits="userSpaceOnUse" id="paint1_linear_6_107" x1="98" x2="98" y1="88" y2="-2.37837"><stop stop-color="var(--ds-background-200)"></stop><stop offset="0.322368" stop-color="var(--ds-background-200)" stop-opacity="0"></stop></linearGradient><clipPath id="clip0_6_107"><rect fill="white" height="8" width="8"></rect></clipPath><linearGradient gradientUnits="userSpaceOnUse" id="paint0_linear_6_107" x1="98" x2="34" y1="40.4324" y2="40.4324"><stop stop-color="#E5484D"></stop><stop offset="0.5" stop-color="#FFC634"></stop><stop offset="1" stop-color="#45DEC4"></stop></linearGradient><linearGradient gradientUnits="userSpaceOnUse" id="paint1_linear_6_107" x1="98" x2="98" y1="88" y2="-2.37837"><stop stop-color="var(--ds-background-200)"></stop><stop offset="0.322368" stop-color="var(--ds-background-200)" stop-opacity="0"></stop></linearGradient></defs></svg>